<?xml version="1.0" standalone="no"?>
<!DOCTYPE svg PUBLIC "-//W3C//DTD SVG 20010904//EN"
 "http://www.w3.org/TR/2001/REC-SVG-20010904/DTD/svg10.dtd">
<svg version="1.0" xmlns="http://www.w3.org/2000/svg"
 width="512.000000pt" height="512.000000pt" viewBox="0 0 512.000000 512.000000"
 preserveAspectRatio="xMidYMid meet">

<g transform="translate(0.000000,512.000000) scale(0.100000,-0.100000)"
fill="#000000" stroke="none">
<path d="M2235 4388 c-11 -6 -119 -86 -240 -177 l-220 -166 -770 -5 -770 -5
-50 -25 c-64 -31 -124 -91 -155 -155 l-25 -50 -3 -778 -2 -777 24 -25 c24 -24
30 -25 161 -25 l135 0 0 -360 0 -360 -56 0 c-87 0 -133 -18 -189 -75 -71 -70
-91 -145 -63 -239 16 -55 99 -138 154 -154 28 -8 130 -12 320 -12 l279 0 24
-45 c31 -58 123 -146 189 -179 145 -73 299 -73 444 0 66 33 158 121 189 179
l24 45 705 0 705 0 24 -45 c31 -58 123 -146 189 -179 145 -73 299 -73 444 0
66 33 158 121 189 179 l24 45 279 0 c190 0 292 4 320 12 86 26 166 136 166
228 0 85 -63 182 -140 216 -22 10 -40 21 -40 25 0 3 86 153 190 332 105 179
190 335 190 346 0 12 -130 249 -290 529 l-290 507 323 5 c364 6 365 6 436 86
45 51 66 115 58 179 -6 55 -373 814 -415 858 -15 16 -45 39 -67 50 l-40 22
-1170 2 c-873 2 -1175 0 -1190 -9z m2328 -159 c18 -8 54 -72 146 -258 l121
-246 -1284 -5 c-1245 -5 -1285 -6 -1305 -24 -29 -26 -29 -86 0 -112 20 -18 48
-19 586 -24 l565 -5 -69 -95 -70 -95 -1416 -5 c-1410 -5 -1416 -5 -1443 -26
-15 -11 -37 -33 -48 -48 -20 -27 -21 -41 -24 -477 l-3 -449 -79 0 -80 0 2 709
c3 699 3 710 24 737 11 15 33 37 48 48 27 21 34 21 1338 26 l1310 5 19 24 c24
30 24 72 0 102 l-19 24 -421 5 -421 5 127 97 128 97 1122 0 c797 1 1129 -2
1146 -10z m372 -719 c31 -62 32 -94 0 -125 l-24 -25 -732 0 -731 0 24 33 c13
17 46 62 73 100 l49 67 658 0 658 0 25 -50z m-1455 -790 l0 -480 -300 0 -300
0 0 375 0 376 -25 24 -24 25 -471 0 -471 0 -24 -25 -25 -24 0 -756 0 -755
-122 0 -121 0 -61 59 c-196 188 -476 188 -672 0 l-61 -59 -161 0 -162 0 0 80
0 80 55 0 c67 0 105 29 105 80 0 51 -38 80 -105 80 l-55 0 0 700 0 700 1500 0
1500 0 0 -480z m675 407 c22 -39 42 -75 43 -79 2 -5 -76 -8 -173 -8 -173 0
-176 0 -200 -25 l-25 -24 0 -271 0 -271 25 -24 24 -25 360 0 360 0 42 -72 c23
-40 44 -76 46 -80 2 -5 -226 -8 -506 -8 l-511 0 0 480 0 480 238 0 237 0 40
-73z m-1435 -947 l0 -700 -360 0 -360 0 0 700 0 700 360 0 360 0 0 -700z
m1667 540 l92 -160 -260 0 -259 0 0 160 0 160 168 0 168 0 91 -160z m246 -687
c-15 -27 -46 -79 -68 -118 l-42 -70 -122 -5 c-114 -5 -124 -7 -142 -29 -26
-32 -24 -77 6 -106 21 -22 33 -25 90 -25 36 0 65 -3 65 -7 0 -5 -24 -48 -53
-98 l-53 -90 -219 -3 -218 -2 -61 59 c-196 188 -475 188 -672 0 l-61 -59 -101
0 -102 0 0 300 0 300 890 0 891 0 -28 -47z m-3335 -529 c76 -25 140 -79 181
-154 33 -60 36 -71 36 -150 0 -77 -3 -91 -34 -148 -38 -70 -70 -101 -145 -140
-43 -22 -64 -26 -136 -26 -70 -1 -94 4 -135 24 -104 51 -173 152 -183 267 -18
223 202 396 416 327z m2280 0 c76 -25 140 -79 181 -154 33 -60 36 -71 36 -150
0 -77 -3 -91 -34 -148 -38 -70 -70 -101 -145 -140 -43 -22 -64 -26 -136 -26
-70 -1 -94 4 -135 24 -104 51 -173 152 -183 267 -18 223 202 396 416 327z
m-2852 -221 c-3 -21 -6 -57 -6 -80 l0 -43 -255 0 -256 0 -24 25 c-16 15 -25
36 -25 55 0 19 9 40 25 55 l24 25 262 0 262 0 -7 -37z m2280 0 c-3 -21 -6 -57
-6 -80 l0 -43 -660 0 -660 0 0 43 c0 23 -3 59 -6 80 l-7 37 673 0 673 0 -7
-37z m1489 12 c16 -15 25 -36 25 -55 0 -19 -9 -40 -25 -55 l-24 -25 -256 0
-255 0 0 43 c0 23 -3 59 -6 80 l-7 37 262 0 262 0 24 -25z"/>
<path d="M665 3015 l-25 -24 0 -511 0 -511 25 -24 24 -25 471 0 471 0 24 25
25 24 0 511 0 511 -25 24 -24 25 -471 0 -471 0 -24 -25z m855 -535 l0 -400
-360 0 -360 0 0 400 0 400 360 0 360 0 0 -400z"/>
<path d="M2425 2215 c-50 -49 -15 -135 55 -135 19 0 40 9 55 25 16 15 25 36
25 55 0 19 -9 40 -25 55 -15 16 -36 25 -55 25 -19 0 -40 -9 -55 -25z"/>
</g>
</svg>
